<svg width="1078" height="1119" viewBox="0 0 1078 1119" fill="none" xmlns="http://www.w3.org/2000/svg">
  <path
    d="M0.000171087 398.457C0.000175381 300.212 52.4234 209.468 137.466 160.345C222.552 111.222 327.356 111.222 412.399 160.345L694.833 323.401C736.925 347.706 762.858 392.628 762.858 441.236C762.858 489.844 736.925 534.766 694.79 559.07L412.399 396.014C370.306 371.71 318.397 371.71 276.304 396.014C234.211 420.318 208.278 465.24 208.278 513.891L208.278 840.004C208.278 932.762 257.744 1018.49 338.115 1064.83C418.443 1111.21 517.417 1111.21 597.745 1064.83C474.466 1136.03 322.555 1136.03 199.234 1064.83C75.956 993.63 0.000150821 862.079 0.000157044 719.726L0.000171087 398.457Z"
    fill="url(#paint0_linear_1002_5392)" />
  <path
    d="M412.4 722.169L694.791 559.113C736.884 534.809 762.86 489.887 762.86 441.278C762.86 392.67 736.927 347.748 694.834 323.444L412.4 160.388C327.314 111.265 222.511 111.265 137.468 160.388C52.3819 209.511 0.00163482 300.255 0.00163053 398.5C0.00163675 256.147 75.9575 124.596 199.236 53.3983C322.514 -17.7995 474.425 -17.7995 597.703 53.3983L880.137 216.412C961.236 263.048 1012.76 348.006 1016.57 441.493C1020.39 534.98 975.982 623.881 898.954 676.947L616.564 840.003C574.471 864.307 522.562 864.307 480.469 840.003C438.376 815.699 412.443 770.777 412.443 722.169L412.4 722.169Z"
    fill="url(#paint1_linear_1002_5392)" />
  <path
    d="M880.137 216.411C1002.56 287.137 1078 417.745 1078 559.155C1078 700.565 1002.56 831.173 880.137 901.856L597.746 1064.91C517.418 1111.29 418.444 1111.29 338.116 1064.91C257.788 1018.53 208.28 932.804 208.28 840.089L208.28 513.933C208.28 465.325 234.213 420.403 276.306 396.056C318.399 371.752 370.307 371.752 412.4 396.056L412.4 722.168C412.4 770.777 438.333 815.699 480.426 840.003C522.519 864.307 574.428 864.307 616.521 840.003L898.911 676.946C975.939 623.837 1020.35 534.937 1016.53 441.492C1012.72 348.005 961.193 263.048 880.094 216.411L880.137 216.411Z"
    fill="url(#paint2_linear_1002_5392)" />
  <defs>
    <linearGradient id="paint0_linear_1002_5392" x1="711.549" y1="439.36" x2="59.4741" y2="1037.11"
      gradientUnits="userSpaceOnUse">
      <stop stop-color="#A5E0F8" />
      <stop offset="1" stop-color="#3F1ECF" />
    </linearGradient>
    <linearGradient id="paint1_linear_1002_5392" x1="113.377" y1="74.3447" x2="555.728" y2="806.64"
      gradientUnits="userSpaceOnUse">
      <stop stop-color="#6B17C3" />
      <stop offset="1" stop-color="#DAB5FC" />
    </linearGradient>
    <linearGradient id="paint2_linear_1002_5392" x1="1007.31" y1="726.551" x2="321.484" y2="507.943"
      gradientUnits="userSpaceOnUse">
      <stop stop-color="#593DB4" />
      <stop offset="1" stop-color="#ADB2FC" />
    </linearGradient>
  </defs>
</svg>