<svg xmlns="http://www.w3.org/2000/svg" width="29" height="29" viewBox="0 0 29 29" fill="none">
  <path
    d="M23.8 8.55005C23.8 7.03127 22.5688 5.80005 21.05 5.80005H8.55005C7.03127 5.80005 5.80005 7.03127 5.80005 8.55005V21.05C5.80005 22.5688 7.03127 23.8 8.55005 23.8H21.05C22.5688 23.8 23.8 22.5688 23.8 21.05V8.55005ZM17.05 14.3C17.4643 14.3 17.8 14.6358 17.8 15.05C17.8 15.4297 17.5179 15.7435 17.1518 15.7932L17.05 15.8H9.55005C9.13584 15.8 8.80005 15.4643 8.80005 15.05C8.80005 14.6704 9.0822 14.3566 9.44828 14.3069L9.55005 14.3H17.05ZM9.55005 18.3H20.05C20.4643 18.3 20.8 18.6358 20.8 19.05C20.8 19.4297 20.5179 19.7435 20.1518 19.7932L20.05 19.8H9.55005C9.13584 19.8 8.80005 19.4643 8.80005 19.05C8.80005 18.6704 9.0822 18.3566 9.44828 18.3069L9.55005 18.3ZM20.05 10.3C20.4643 10.3 20.8 10.6358 20.8 11.05C20.8 11.4297 20.5179 11.7435 20.1518 11.7932L20.05 11.8H9.55005C9.13584 11.8 8.80005 11.4643 8.80005 11.05C8.80005 10.6704 9.0822 10.3566 9.44828 10.3069L9.55005 10.3H20.05Z"
    fill="white" />
</svg>