<svg xmlns="http://www.w3.org/2000/svg" width="29" height="29" viewBox="0 0 29 29" fill="none">
  <path
    d="M12.3 4.80005C13.2794 4.80005 14.1648 5.20228 14.8001 5.85056C15.4353 5.20228 16.3207 4.80005 17.3 4.80005H24.8C25.9046 4.80005 26.8 5.69548 26.8 6.80005V22.8C26.8 23.9046 25.9046 24.8 24.8 24.8H17.3C16.3207 24.8 15.4353 24.3978 14.8001 23.7495C14.1648 24.3978 13.2794 24.8 12.3 24.8H4.80005C3.69548 24.8 2.80005 23.9046 2.80005 22.8V6.80005C2.80005 5.69548 3.69548 4.80005 4.80005 4.80005H12.3ZM13.8 21.3V8.30005C13.8 7.47162 13.1285 6.80005 12.3 6.80005H4.80005V22.8H12.3C13.1285 22.8 13.8 22.1285 13.8 21.3ZM15.8 8.30005V21.3C15.8 22.1285 16.4716 22.8 17.3 22.8H24.8V6.80005H17.3C16.4716 6.80005 15.8 7.47162 15.8 8.30005Z"
    fill="white" />
</svg>