<svg xmlns="http://www.w3.org/2000/svg" width="29" height="29" viewBox="0 0 29 29" fill="none">
  <path
    d="M6.30005 14.8C6.30005 10.1056 10.1056 6.30005 14.8 6.30005C19.4945 6.30005 23.3 10.1056 23.3 14.8V16.8H21.05C20.6358 16.8 20.3 17.1358 20.3 17.55V24.05C20.3 24.4643 20.6358 24.8 21.05 24.8H21.8C23.4569 24.8 24.8 23.4569 24.8 21.8V14.8C24.8 9.2772 20.3229 4.80005 14.8 4.80005C9.2772 4.80005 4.80005 9.2772 4.80005 14.8V21.8C4.80005 23.4569 6.14319 24.8 7.80005 24.8H8.55005C8.96426 24.8 9.30005 24.4643 9.30005 24.05V17.55C9.30005 17.1358 8.96426 16.8 8.55005 16.8H6.30005V14.8ZM15.55 14.55C15.55 14.1358 15.2143 13.8 14.8 13.8C14.3858 13.8 14.05 14.1358 14.05 14.55V25.05C14.05 25.4643 14.3858 25.8 14.8 25.8C15.2143 25.8 15.55 25.4643 15.55 25.05V14.55ZM11.55 16.8C11.9643 16.8 12.3 17.1358 12.3 17.55V22.0503C12.3 22.4645 11.9643 22.8003 11.55 22.8003C11.1358 22.8003 10.8 22.4645 10.8 22.0503V17.55C10.8 17.1358 11.1358 16.8 11.55 16.8ZM18.8 17.55C18.8 17.1358 18.4643 16.8 18.05 16.8C17.6358 16.8 17.3 17.1358 17.3 17.55V22.0503C17.3 22.4645 17.6358 22.8003 18.05 22.8003C18.4643 22.8003 18.8 22.4645 18.8 22.0503V17.55Z"
    fill="white" />
</svg>