<svg xmlns="http://www.w3.org/2000/svg" width="29" height="29" viewBox="0 0 29 29" fill="none">
  <path
    d="M16.147 19.0583H12.243C12.243 17.3943 12.467 16.0823 12.947 15.1543C13.267 14.4503 14.099 13.5863 15.411 12.5623C15.827 12.2423 16.147 12.0183 16.339 11.8583C16.531 11.6983 16.723 11.5063 16.947 11.2503C17.139 11.0263 17.331 10.7703 17.523 10.4503C17.779 10.0343 17.939 9.5863 17.939 9.0743C17.939 7.1543 16.819 6.1623 14.579 6.1623C13.299 6.1623 12.339 6.4823 11.731 7.1223C11.123 7.7623 10.803 8.7863 10.739 10.2583H6.67505C6.67505 7.7623 7.34705 5.9063 8.72305 4.6263C10.067 3.3463 12.051 2.7063 14.643 2.7063C16.979 2.7063 18.835 3.2503 20.2111 4.3063C21.555 5.3623 22.259 6.8343 22.259 8.7543C22.259 10.8343 21.139 12.6903 18.931 14.3543C17.715 15.2503 16.915 16.0183 16.595 16.5943C16.275 17.1063 16.147 17.9063 16.147 19.0583ZM16.531 26.0023H11.859V21.4263H16.531V26.0023Z"
    fill="white" />
</svg>