<svg xmlns="http://www.w3.org/2000/svg" width="29" height="29" viewBox="0 0 29 29" fill="none">
  <path
    d="M18.8 19.05C18.8 20.845 17.345 22.3 15.55 22.3H8.05005C6.25512 22.3 4.80005 20.845 4.80005 19.05V10.55C4.80005 8.75512 6.25512 7.30005 8.05005 7.30005H15.55C17.345 7.30005 18.8 8.75512 18.8 10.55V19.05ZM24.562 8.69339C24.7157 8.87419 24.8 9.10373 24.8 9.341V20.2588C24.8 20.8111 24.3523 21.2588 23.8 21.2588C23.5628 21.2588 23.3333 21.1745 23.1525 21.0208L19.8 18.171V11.428L23.1524 8.57904C23.5733 8.22137 24.2043 8.27257 24.562 8.69339Z"
    fill="white" />
</svg>